<svg xmlns="http://www.w3.org/2000/svg" viewBox="0 0 64 64">
	<defs>
		<style>.cls-1,.cls-2{fill:#fff;}.cls-2{fill-rule:evenodd;}</style>
	</defs>
	<g id="Layer_10" data-name="Layer 10">
		<path class="cls-1" d="M52.32,17.68l-2.83,5a1.16,1.16,0,0,1-2,0l-.57-1-.54.32c-.22-.44-.46-.88-.71-1.31s-.66-1.1-1-1.63l.53-.3-.63-1.06a1.16,1.16,0,0,1,1-1.74l5.75,0A1.15,1.15,0,0,1,52.32,17.68Z"/>
		<path class="cls-1" d="M24.71,25.63l-4.84,2.58-.53.28a38.15,38.15,0,0,1-5.54-2.18c-4.51-1.49-1.48-7,1.93-4.31.34.22.69.44,1,.64.59.35,1.21.67,1.82,1A25.88,25.88,0,0,0,24.71,25.63Z"/>
		<path class="cls-1" d="M30.83,36.22c-.15.43-.28.86-.41,1.29a25.74,25.74,0,0,0-.81,4.09,26.72,26.72,0,0,0-.17,3.1c0,.37,0,.75,0,1.12A2.45,2.45,0,0,1,25,47.72c-.56-1-.22-2-.18-3.08s.21-2,.39-3c.12-.74.27-1.47.43-2.2l.53-.33,3.63-2.26Z"/>
		<path class="cls-1" d="M35,28.71l-.91.57L31.3,31,24,35.59l-4.45,2.78-2.22,1.37a2.6,2.6,0,0,1-1.26.34,2.45,2.45,0,0,1-.8-4.72l.58-.31,1.3-.69,4.67-2.5,7.6-4.05,2.94-1.57.94-.5a17.91,17.91,0,0,1,1,1.55C34.57,27.75,34.82,28.23,35,28.71Z"/>
		<path class="cls-2" d="M39.29,53.89a2.56,2.56,0,0,1-1.09.74l-.34.08a.13.13,0,0,1-.09,0,1.84,1.84,0,0,1-.33,0,2.41,2.41,0,0,1-1.84-4,22.32,22.32,0,0,0,5-18.09c0-.24-.08-.48-.13-.72s-.1-.48-.16-.73-.11-.48-.18-.72-.12-.45-.2-.68a20.49,20.49,0,0,0-.7-1.94c-.06-.18-.14-.34-.21-.51a21.83,21.83,0,0,0-1.09-2.16c-.14-.22-.27-.45-.4-.66-.25-.4-.51-.78-.77-1.16s-.63-.85-1-1.26l-.48-.56c-.35-.4-.72-.78-1.09-1.14a6.51,6.51,0,0,0-.54-.51l-.45-.4a22.08,22.08,0,0,0-3-2.2c-.17-.11-.36-.21-.54-.31s-.42-.24-.63-.35l-.46-.23a19.7,19.7,0,0,0-2.31-1l-.44-.15-.1,0c-.53-.18-1.07-.34-1.63-.48l-.25-.06a19.61,19.61,0,0,0-2-.39c-.35-.06-.7-.1-1-.13s-.8-.07-1.2-.08-.65,0-1,0h0a22.18,22.18,0,0,0-4,.36,3.28,3.28,0,0,1-.43,0,2.42,2.42,0,0,1-.42-4.8A26,26,0,0,1,18,9.26h.62c.43,0,.86,0,1.28,0l1,.07,1.07.11c.52.07,1,.14,1.53.24.23,0,.46.08.7.13l.14,0c.35.08.69.15,1,.25a20.61,20.61,0,0,1,2.16.65c.48.16.94.33,1.4.52h0c.33.14.67.28,1,.44s.58.27.86.42l.27.13c.28.14.56.29.82.45s.64.36,1,.55c.49.31,1,.62,1.45,1l.15.11c.31.22.62.46.93.7l.11.08c.36.28.71.58,1.06.89l0,0c.33.28.64.57,1,.88s.64.62.94.95c.1.1.19.21.29.32.26.29.52.58.77.88,0,0,0,.05.06.09.28.34.55.68.81,1s.55.75.82,1.15l.28.44c.21.33.42.67.62,1A27.14,27.14,0,0,1,39.29,53.89Z"/>
	</g>
</svg>