<svg xmlns="http://www.w3.org/2000/svg" xmlns:xlink="http://www.w3.org/1999/xlink" viewBox="0 0 64 64">
	<defs>
		<style>.cls-1{fill:url(#linear-gradient);}.cls-2{fill:url(#linear-gradient-2);}.cls-3{fill:url(#linear-gradient-3);}.cls-4{fill:url(#linear-gradient-4);}.cls-5{fill-rule:evenodd;fill:url(#linear-gradient-5);}</style>
		<linearGradient id="linear-gradient" x1="10.89" y1="4.3" x2="132.29" y2="43.7" gradientUnits="userSpaceOnUse">
			<stop offset="0" stop-color="#f39f25"/>
			<stop offset="0.12" stop-color="#f83d3d"/>
			<stop offset="0.28" stop-color="#cb3cee"/>
			<stop offset="0.44" stop-color="#2667f6"/>
			<stop offset="0.56" stop-color="#1cb8e9"/>
			<stop offset="1" stop-color="#d1e926"/>
		</linearGradient>
		<linearGradient id="linear-gradient-2" x1="5.67" y1="20.39" x2="127.07" y2="59.79" xlink:href="#linear-gradient"/>
		<linearGradient id="linear-gradient-3" x1="1.17" y1="34.25" x2="122.57" y2="73.65" xlink:href="#linear-gradient"/>
		<linearGradient id="linear-gradient-4" x1="3.87" y1="25.93" x2="125.27" y2="65.33" xlink:href="#linear-gradient"/>
		<linearGradient id="linear-gradient-5" x1="18.41" y1="11.59" x2="55.36" y2="54.71" gradientUnits="userSpaceOnUse">
			<stop offset="0" stop-color="#009587"/>
			<stop offset="1" stop-color="#045e53"/>
		</linearGradient>
	</defs>
	<g id="Layer_26" data-name="Layer 26">
		<path class="cls-1" d="M56.55,16.11l-3.14,5.54a1.28,1.28,0,0,1-2.22,0l-.63-1.08-.6.35c-.25-.48-.52-1-.79-1.45s-.73-1.21-1.11-1.8l.58-.34L48,16.17a1.29,1.29,0,0,1,1.1-1.93l6.38-.05A1.28,1.28,0,0,1,56.55,16.11Z"/>
		<path class="cls-2" d="M25.91,24.93l-5.37,2.86-.59.32a43.86,43.86,0,0,1-6.15-2.42C8.8,24,12.16,18,15.94,20.9c.38.25.77.49,1.16.72.66.38,1.34.73,2,1.06A29,29,0,0,0,25.91,24.93Z"/>
		<path class="cls-3" d="M32.7,36.69c-.17.47-.31.94-.45,1.42a28.75,28.75,0,0,0-1.09,8c0,.42,0,.83.05,1.25a2.72,2.72,0,0,1-5,2.11c-.62-1.08-.24-2.27-.2-3.42s.24-2.23.43-3.33c.14-.82.31-1.64.49-2.45l.58-.35,4-2.51Z"/>
		<path class="cls-4" d="M37.38,28.35l-1,.63-3.15,2L25.12,36l-4.94,3.08c-.82.5-1.63,1-2.46,1.52a2.87,2.87,0,0,1-1.4.38,2.72,2.72,0,0,1-.89-5.24l.65-.35,1.44-.76,5.18-2.77,8.44-4.5,3.26-1.74,1.05-.56c.39.56.77,1.13,1.11,1.72S37.13,27.81,37.38,28.35Z"/>
		<path class="cls-5" d="M42.09,56.29a3,3,0,0,1-.68.58,2.79,2.79,0,0,1-.53.24,2.49,2.49,0,0,1-.37.09.2.2,0,0,1-.11,0,1.47,1.47,0,0,1-.36,0,2.65,2.65,0,0,1-1.73-.64A2.68,2.68,0,0,1,38,52.83a24.76,24.76,0,0,0,5.51-20.07c0-.27-.09-.54-.14-.81s-.11-.53-.18-.8-.13-.53-.2-.8-.14-.5-.22-.75c-.22-.73-.48-1.45-.77-2.16-.08-.2-.16-.38-.24-.57-.36-.81-.77-1.61-1.22-2.4l-.44-.73c-.27-.44-.56-.87-.85-1.28s-.7-.95-1.08-1.4c-.17-.21-.35-.42-.53-.62-.39-.44-.79-.87-1.21-1.27a8,8,0,0,0-.6-.56c-.16-.16-.34-.31-.5-.45A24,24,0,0,0,32,15.72l-.6-.35c-.23-.14-.47-.27-.7-.38s-.34-.18-.51-.26a22.68,22.68,0,0,0-2.57-1.12l-.47-.16-.12,0c-.59-.2-1.19-.37-1.81-.53l-.28-.07a20.71,20.71,0,0,0-2.22-.43c-.38-.06-.77-.11-1.16-.14s-.89-.08-1.33-.1l-1.09,0h0a24.23,24.23,0,0,0-4.4.39,2.61,2.61,0,0,1-.48.05,2.69,2.69,0,0,1-.47-5.33,29.56,29.56,0,0,1,4.66-.47h.69c.48,0,.95,0,1.42,0s.75,0,1.12.08.8.07,1.19.11c.57.08,1.13.16,1.69.27q.39.06.78.15l.16,0c.39.08.76.16,1.14.26a22.84,22.84,0,0,1,2.4.73c.53.17,1,.37,1.56.58h0c.37.15.75.31,1.11.49s.64.29,1,.45l.31.15c.3.16.61.32.91.5s.71.4,1.06.61c.55.35,1.09.69,1.61,1.07l.16.12,1,.77.12.1c.4.31.79.64,1.18,1l0,0c.36.31.71.63,1.05,1s.71.69,1,1.06c.11.11.22.23.32.35.3.32.58.64.86,1l.07.09c.31.38.61.77.9,1.16s.61.84.9,1.28c.1.16.22.32.32.49.24.37.47.74.69,1.13A30.11,30.11,0,0,1,42.09,56.29Z"/>
	</g>
</svg>