<?xml version="1.0" standalone="no"?>
<!DOCTYPE svg PUBLIC "-//W3C//DTD SVG 20010904//EN"
 "http://www.w3.org/TR/2001/REC-SVG-20010904/DTD/svg10.dtd">
<svg version="1.0" xmlns="http://www.w3.org/2000/svg"
 width="242.000000pt" height="341.000000pt" viewBox="0 0 242.000000 341.000000"
 preserveAspectRatio="xMidYMid meet">
<metadata>
Created by potrace 1.15, written by Peter Selinger 2001-2017
</metadata>
<g transform="translate(0.000000,341.000000) scale(0.100000,-0.100000)"
fill="#ffffff" stroke="none">
<path d="M46 3388 l-48 -22 5 -47 c15 -121 99 -212 249 -268 l75 -28 1 36 c1
20 4 71 8 114 3 46 2 77 -3 77 -16 0 -33 49 -33 94 0 40 -3 45 -31 55 -54 19
-168 13 -223 -11z"/>
<path d="M378 3281 c-24 -19 -25 -26 -31 -173 -3 -84 -24 -409 -47 -723 -22
-313 -44 -628 -48 -700 -5 -71 -10 -111 -11 -88 l-1 42 -85 -37 c-46 -20 -85
-42 -85 -47 0 -6 38 -19 85 -29 l85 -19 0 -43 c0 -57 14 -92 44 -105 l25 -12
-40 -79 c-22 -44 -39 -81 -37 -83 5 -5 472 215 484 228 6 7 21 51 34 98 l22
86 615 288 c337 158 615 286 617 284 2 -2 -9 -49 -25 -103 -16 -55 -27 -102
-24 -104 7 -8 144 108 235 198 92 91 230 263 230 286 0 27 -334 14 -562 -22
-60 -10 -108 -20 -108 -24 0 -4 45 -27 100 -52 l100 -45 -172 -81 c-684 -321
-1017 -476 -1042 -485 -24 -8 -44 -5 -110 18 l-82 28 -98 -46 c-55 -26 -101
-45 -103 -43 -5 5 87 1349 93 1355 2 2 4 -12 4 -31 0 -29 4 -37 23 -41 12 -4
132 -18 267 -32 333 -35 482 -69 585 -133 62 -38 86 -63 111 -117 33 -69 31
-135 -6 -247 l-30 -89 77 -110 c42 -61 80 -112 84 -115 4 -2 55 18 113 45
l105 50 -49 73 -48 74 41 84 c41 81 42 86 42 184 0 96 -2 104 -34 163 -34 64
-118 154 -184 199 -21 14 -81 46 -135 72 l-97 47 -325 6 c-179 4 -358 12 -397
18 -40 7 -78 9 -84 6 -6 -4 -20 -21 -31 -39 -24 -37 -22 -30 16 57 l29 68 -28
29 c-34 35 -71 39 -107 11z"/>
<path d="M1730 2035 c-52 -25 -99 -46 -103 -48 -5 -1 8 -66 28 -144 l37 -141
45 -12 c115 -28 217 -106 244 -186 47 -138 -16 -306 -236 -635 -74 -110 -147
-221 -162 -246 -26 -45 -26 -46 -7 -60 34 -27 98 -53 129 -52 27 0 37 11 103
112 40 62 105 151 145 198 39 48 110 131 155 185 100 119 116 148 149 273 32
125 34 267 6 357 -47 145 -150 232 -314 266 -34 7 -63 17 -65 23 -2 5 -13 43
-24 83 -12 39 -25 72 -28 72 -4 0 -50 -20 -102 -45z"/>
<path d="M450 1273 l-35 -15 25 -17 c13 -9 123 -86 245 -172 121 -85 360 -254
530 -374 171 -120 352 -251 403 -292 79 -62 98 -72 120 -67 61 15 79 42 64 99
-8 27 -17 33 -113 65 -103 35 -109 39 -641 413 -296 207 -543 377 -550 376 -7
0 -29 -8 -48 -16z"/>
<path d="M1486 380 c-29 -90 -34 -190 -12 -253 17 -46 65 -117 85 -125 20 -8
117 45 147 81 14 16 36 51 49 77 l24 48 -44 45 c-25 24 -45 53 -45 64 0 13
-26 38 -77 75 -43 30 -83 58 -89 61 -7 4 -21 -22 -38 -73z"/>
</g>
</svg>
